{"title":"Michael Jackson - Ghosts (unedited original version) 1080i [09.0","uid":9430900,"size":6781778332,"categoryP":"video","categoryS":"music_videos","magnet":"?xt=urn:btih:10b56c69e17b8d1f3b148c243783af2fe2914cf7&amp;dn=Michael+Jackson+-+Ghosts+%28unedited+original+version%29+1080i+%5B09.0&amp;tr=udp%3A%2F%2Ftracker.openbittorrent.com%3A80&amp;tr=udp%3A%2F%2Fopen.demonii.com%3A1337&amp;tr=udp%3A%2F%2Ftracker.coppersurfer.tk%3A6969&amp;tr=udp%3A%2F%2Fexodus.desync.com%3A6969","seeders":4,"leechers":1,"uploader":"Jayro_Gomes","files":1,"time":1388797647,"description":"File name:                   : [1997.05.09] Ghosts (unedited original version) 1080i.ts\nFormat                       : MPEG-TS\nFile size                    : 6.32 GiB\nDuration                     : 39mn 39s\nOverall bit rate mode        : Variable\nOverall bit rate             : 22.8 Mbps\nMaximum Overall bit rate     : 35.5 Mbps\n\nVideo\nID                           : 4113 (0x1011)\nMenu ID                      : 1 (0x1)\nFormat                       : MPEG Video\nFormat version               : Version 2\nFormat profile               : Main@High\nFormat settings, BVOP        : Yes\nFormat settings, Matrix      : Custom\nFormat settings, GOP         : M=3, N=12\nCodec ID                     : 2\nDuration                     : 39mn 39s\nBit rate mode                : Variable\nBit rate                     : 20.1 Mbps\nMaximum bit rate             : 24.0 Mbps\nWidth                        : 1 920 pixels\nHeight                       : 1 080 pixels\nDisplay aspect ratio         : 16:9\nFrame rate                   : 29.970 fps\nColor space                  : YUV\nChroma subsampling           : 4:2:0\nBit depth                    : 8 bits\nCompression mode             : Lossy\nBits/(Pixel*Frame)           : 0.324\nTime code of first frame     : 12:33:34;10\nTime code source             : Group of pictures header\nStream size                  : 5.57 GiB (88%)\nColor primaries              : BT.709\nTransfer characteristics     : BT.709\nMatrix coefficients          : BT.709\n\nAudio\nID                           : 4352 (0x1100)\nMenu ID                      : 1 (0x1)\nFormat                       : PCM\nFormat settings, Endianness  : Big\nFormat settings, Sign        : Signed\nMuxing mode                  : Blu-ray\nCodec ID                     : 128\nDuration                     : 39mn 39s\nBit rate mode                : Constant\nBit rate                     : 1 536 Kbps\nChannel count                : 2 channels\nChannel positions            : Front: L R\nSampling rate                : 48.0 KHz\nBit depth                    : 16 bits\nDelay relative to video      : -67ms\nStream size                  : 436 MiB (7%)","torrent":{"xt":"urn:btih:10b56c69e17b8d1f3b148c243783af2fe2914cf7","amp;dn":"Michael+Jackson+-+Ghosts+%28unedited+original+version%29+1080i+%5B09.0","amp;tr":["udp%3A%2F%2Ftracker.openbittorrent.com%3A80","udp%3A%2F%2Fopen.demonii.com%3A1337","udp%3A%2F%2Ftracker.coppersurfer.tk%3A6969","udp%3A%2F%2Fexodus.desync.com%3A6969"],"infoHash":"10b56c69e17b8d1f3b148c243783af2fe2914cf7","infoHashBuffer":{"type":"Buffer","data":[16,181,108,105,225,123,141,31,59,20,140,36,55,131,175,47,226,145,76,247]},"announce":[],"urlList":[]}}